<svg width="25" height="25" viewBox="0 0 25 25" fill="none" xmlns="http://www.w3.org/2000/svg">
<path fill-rule="evenodd" clip-rule="evenodd" d="M10.0718 15.6706C10.7134 16.1055 11.4953 16.3685 12.3274 16.3685C14.5328 16.3685 16.3272 14.5579 16.3272 12.3327C16.3272 11.4931 16.0666 10.7042 15.6355 10.0568L14.5428 11.1593C14.7233 11.5032 14.8235 11.9078 14.8235 12.3327C14.8235 13.7184 13.7008 14.8513 12.3274 14.8513C11.9063 14.8513 11.5053 14.7501 11.1645 14.568L10.0718 15.6706ZM18.9337 6.72903C20.3873 8.06419 21.6203 9.86463 22.5426 12.0292C22.6228 12.2214 22.6228 12.4439 22.5426 12.626C20.3973 17.6632 16.5779 20.6774 12.3274 20.6774H12.3173C10.3826 20.6774 8.52799 20.0402 6.89395 18.877L4.94915 20.8393C4.79878 20.991 4.60831 21.0618 4.41784 21.0618C4.22737 21.0618 4.02687 20.991 3.88653 20.8393C3.63591 20.5864 3.59581 20.1818 3.7963 19.8885L3.82638 19.848L18.653 4.88812L18.653 4.88811C18.6731 4.86788 18.6931 4.84766 18.7031 4.82743C18.7232 4.8072 18.7432 4.78697 18.7532 4.76674L19.6956 3.81595C19.9963 3.52261 20.4675 3.52261 20.7582 3.81595C21.0589 4.10928 21.0589 4.59479 20.7582 4.88812L18.9337 6.72903ZM8.32016 12.3366C8.32016 12.5996 8.35024 12.8626 8.39033 13.1053L4.68117 16.8478C3.6787 15.6745 2.80654 14.2584 2.11484 12.6299C2.03464 12.4479 2.03464 12.2253 2.11484 12.0332C4.26013 6.99596 8.07957 3.99185 12.32 3.99185H12.3301C13.7636 3.99185 15.157 4.33575 16.4402 4.9831L13.0919 8.36147C12.8514 8.32101 12.5907 8.29066 12.3301 8.29066C10.1146 8.29066 8.32016 10.1012 8.32016 12.3366Z" fill="black"/>
</svg>
